<?xml version="1.0" encoding="iso-8859-1"?>
<!-- Generator: Adobe Illustrator 19.0.0, SVG Export Plug-In . SVG Version: 6.00 Build 0)  -->
<svg version="1.1" id="Capa_1" xmlns="http://www.w3.org/2000/svg" xmlns:xlink="http://www.w3.org/1999/xlink" x="0px" y="0px"
	 viewBox="0 0 512 512" style="enable-background:new 0 0 512 512;" xml:space="preserve">
<g>
	<g>
		<circle cx="286.88" cy="193.67" r="15"/>
	</g>
</g>
<g>
	<g>
		<path d="M437.008,129.506c22.452-19.559,27.74-52.669,27.978-54.237l1.805-11.859l-11.173-4.367
			c-1.66-0.648-40.993-15.688-71.197,1.751c-9.069,5.236-16.012,12.65-21.298,20.509C345.461,33.875,299.724,0,246.219,0
			C177.46,0,121.522,55.938,121.522,124.697v4.809v15v49.655c0,42.394,21.27,79.907,53.693,102.448v8.955H150.8
			c-58.223,0-105.591,47.368-105.591,105.591V512h402.019V411.154c0-58.223-47.368-105.591-105.591-105.591h-24.414v-8.955
			c32.423-22.541,53.693-60.054,53.693-102.448v-6.678c3.871,4.071,8.343,7.756,13.504,10.736
			c10.999,6.35,23.207,8.394,34.367,8.394c19.487,0,35.775-6.231,36.83-6.644l11.173-4.367l-1.805-11.859
			C464.748,182.174,459.459,149.065,437.008,129.506z M246.219,30c48.774,0,89.055,37.063,94.152,84.506H152.067
			C157.165,67.063,197.445,30,246.219,30z M151.522,144.506h93.96l-93.96,29.506V144.506z M220.377,183.833v13.407
			c0,6.876-5.594,12.47-12.47,12.47c-6.876,0-12.47-5.594-12.47-12.47v-5.575h0.001L220.377,183.833z M150.8,335.563h24.415v1.675
			c0,9.676,1.952,18.903,5.473,27.317H91.347C105.198,346.923,126.691,335.563,150.8,335.563z M417.228,482H75.209v-28.722h342.019
			V482z M417.229,411.155v12.124H75.209v-12.124c0-5.703,0.656-11.253,1.859-16.599h127.311
			c11.743,8.596,26.206,13.687,41.84,13.687c15.634,0,30.097-5.092,41.841-13.687h127.31
			C416.573,399.901,417.229,405.451,417.229,411.155z M205.215,337.238v-25.314c12.848,4.486,26.645,6.934,41.004,6.934
			c14.359,0,28.156-2.448,41.004-6.934v25.314c0,22.609-18.395,41.004-41.004,41.004S205.215,359.847,205.215,337.238z
			 M341.637,335.563c24.109,0,45.602,11.36,59.453,28.992h-89.34c3.521-8.414,5.473-17.641,5.473-27.317v-1.675H341.637z
			 M340.917,194.161c0,52.216-42.482,94.697-94.698,94.697c-48.464,0-88.536-36.598-94.044-83.607l13.441-4.221
			c1.925,21.648,20.152,38.68,42.292,38.68c23.418,0,42.47-19.052,42.47-42.47v-22.828l90.539-28.432V194.161z M428.138,176.012
			c-8.193,1.109-19.829,1.358-28.718-3.773c-9.442-5.451-15.514-16.883-18.98-26.482c1.186-0.215,2.427-0.415,3.715-0.59
			c8.194-1.11,19.828-1.358,28.718,3.773c9.445,5.454,15.52,16.894,18.982,26.481C430.669,175.637,429.427,175.837,428.138,176.012z
			 M412.873,110.074c-9.445,5.453-22.39,4.992-32.426,3.199c0.406-1.136,0.854-2.312,1.346-3.515
			c3.136-7.652,8.739-17.852,17.627-22.983c9.447-5.453,22.39-4.993,32.437-3.194C428.391,93.182,422.318,104.62,412.873,110.074z"
			/>
	</g>
</g>
<g>
</g>
<g>
</g>
<g>
</g>
<g>
</g>
<g>
</g>
<g>
</g>
<g>
</g>
<g>
</g>
<g>
</g>
<g>
</g>
<g>
</g>
<g>
</g>
<g>
</g>
<g>
</g>
<g>
</g>
</svg>
