<?xml version="1.0" encoding="UTF-8"?>
<!--Generator: Apple Native CoreSVG 123-->
<!DOCTYPE svg
PUBLIC "-//W3C//DTD SVG 1.1//EN"
       "http://www.w3.org/Graphics/SVG/1.1/DTD/svg11.dtd">
<svg version="1.1" xmlns="http://www.w3.org/2000/svg" xmlns:xlink="http://www.w3.org/1999/xlink" width="3300" height="2200">
 <!--glyph: "uni100587.medium", point size: 100.000000, font version: "Version 15.0d4e20", template writer version: "2"-->
 <g id="Notes">
  <rect height="2200" id="artboard" style="fill:white;opacity:1" width="3300" x="0" y="0"/>
  <line id="" style="fill:none;stroke:black;opacity:1;stroke-width:0.5;" x1="263" x2="3036" y1="292" y2="292"/>
  <text style="stroke:none;fill:black;font-family:-apple-system,&quot;SF Pro Display&quot;,&quot;SF Pro Text&quot;,Helvetica,sans-serif;font-weight:bold;" transform="matrix(1 0 0 1 263 322)">Weight/Scale Variations</text>
  <text style="stroke:none;fill:black;font-family:-apple-system,&quot;SF Pro Display&quot;,&quot;SF Pro Text&quot;,Helvetica,sans-serif;text-anchor:middle;" transform="matrix(1 0 0 1 559.711 322)">Ultralight</text>
  <text style="stroke:none;fill:black;font-family:-apple-system,&quot;SF Pro Display&quot;,&quot;SF Pro Text&quot;,Helvetica,sans-serif;text-anchor:middle;" transform="matrix(1 0 0 1 856.422 322)">Thin</text>
  <text style="stroke:none;fill:black;font-family:-apple-system,&quot;SF Pro Display&quot;,&quot;SF Pro Text&quot;,Helvetica,sans-serif;text-anchor:middle;" transform="matrix(1 0 0 1 1153.13 322)">Light</text>
  <text style="stroke:none;fill:black;font-family:-apple-system,&quot;SF Pro Display&quot;,&quot;SF Pro Text&quot;,Helvetica,sans-serif;text-anchor:middle;" transform="matrix(1 0 0 1 1449.84 322)">Regular</text>
  <text style="stroke:none;fill:black;font-family:-apple-system,&quot;SF Pro Display&quot;,&quot;SF Pro Text&quot;,Helvetica,sans-serif;text-anchor:middle;" transform="matrix(1 0 0 1 1746.56 322)">Medium</text>
  <text style="stroke:none;fill:black;font-family:-apple-system,&quot;SF Pro Display&quot;,&quot;SF Pro Text&quot;,Helvetica,sans-serif;text-anchor:middle;" transform="matrix(1 0 0 1 2043.27 322)">Semibold</text>
  <text style="stroke:none;fill:black;font-family:-apple-system,&quot;SF Pro Display&quot;,&quot;SF Pro Text&quot;,Helvetica,sans-serif;text-anchor:middle;" transform="matrix(1 0 0 1 2339.98 322)">Bold</text>
  <text style="stroke:none;fill:black;font-family:-apple-system,&quot;SF Pro Display&quot;,&quot;SF Pro Text&quot;,Helvetica,sans-serif;text-anchor:middle;" transform="matrix(1 0 0 1 2636.69 322)">Heavy</text>
  <text style="stroke:none;fill:black;font-family:-apple-system,&quot;SF Pro Display&quot;,&quot;SF Pro Text&quot;,Helvetica,sans-serif;text-anchor:middle;" transform="matrix(1 0 0 1 2933.4 322)">Black</text>
  <line id="" style="fill:none;stroke:black;opacity:1;stroke-width:0.5;" x1="263" x2="3036" y1="1903" y2="1903"/>
  <g id="" transform="matrix(1 0 0 1 263 1933)">
   <path d="M 9.24805 0.830078 C 13.5547 0.830078 17.1387 -2.74414 17.1387 -7.05078 C 17.1387 -11.3574 13.5449 -14.9316 9.23828 -14.9316 C 4.94141 -14.9316 1.36719 -11.3574 1.36719 -7.05078 C 1.36719 -2.74414 4.95117 0.830078 9.24805 0.830078 Z M 9.24805 -0.654297 C 5.70312 -0.654297 2.87109 -3.49609 2.87109 -7.05078 C 2.87109 -10.6055 5.69336 -13.4473 9.23828 -13.4473 C 12.793 -13.4473 15.6348 -10.6055 15.6445 -7.05078 C 15.6543 -3.49609 12.8027 -0.654297 9.24805 -0.654297 Z M 9.22852 -3.42773 C 9.69727 -3.42773 9.9707 -3.74023 9.9707 -4.25781 L 9.9707 -6.31836 L 12.1973 -6.31836 C 12.6953 -6.31836 13.0371 -6.57227 13.0371 -7.04102 C 13.0371 -7.51953 12.7148 -7.7832 12.1973 -7.7832 L 9.9707 -7.7832 L 9.9707 -10.0098 C 9.9707 -10.5273 9.69727 -10.8496 9.22852 -10.8496 C 8.75977 -10.8496 8.50586 -10.5078 8.50586 -10.0098 L 8.50586 -7.7832 L 6.29883 -7.7832 C 5.78125 -7.7832 5.44922 -7.51953 5.44922 -7.04102 C 5.44922 -6.57227 5.80078 -6.31836 6.29883 -6.31836 L 8.50586 -6.31836 L 8.50586 -4.25781 C 8.50586 -3.75977 8.75977 -3.42773 9.22852 -3.42773 Z"/>
  </g>
  <g id="" transform="matrix(1 0 0 1 281.506 1933)">
   <path d="M 11.709 2.91016 C 17.1484 2.91016 21.6699 -1.60156 21.6699 -7.05078 C 21.6699 -12.4902 17.1387 -17.0117 11.6992 -17.0117 C 6.25 -17.0117 1.74805 -12.4902 1.74805 -7.05078 C 1.74805 -1.60156 6.25977 2.91016 11.709 2.91016 Z M 11.709 1.25 C 7.09961 1.25 3.41797 -2.44141 3.41797 -7.05078 C 3.41797 -11.6504 7.08984 -15.3516 11.6992 -15.3516 C 16.2988 -15.3516 20 -11.6504 20.0098 -7.05078 C 20.0195 -2.44141 16.3086 1.25 11.709 1.25 Z M 11.6797 -2.41211 C 12.207 -2.41211 12.5195 -2.77344 12.5195 -3.33984 L 12.5195 -6.23047 L 15.5762 -6.23047 C 16.123 -6.23047 16.5039 -6.51367 16.5039 -7.03125 C 16.5039 -7.55859 16.1426 -7.86133 15.5762 -7.86133 L 12.5195 -7.86133 L 12.5195 -10.9277 C 12.5195 -11.5039 12.207 -11.8555 11.6797 -11.8555 C 11.1621 -11.8555 10.8789 -11.4844 10.8789 -10.9277 L 10.8789 -7.86133 L 7.83203 -7.86133 C 7.25586 -7.86133 6.89453 -7.55859 6.89453 -7.03125 C 6.89453 -6.51367 7.28516 -6.23047 7.83203 -6.23047 L 10.8789 -6.23047 L 10.8789 -3.33984 C 10.8789 -2.79297 11.1621 -2.41211 11.6797 -2.41211 Z"/>
  </g>
  <g id="" transform="matrix(1 0 0 1 304.914 1933)">
   <path d="M 14.9707 5.67383 C 21.9336 5.67383 27.6855 -0.078125 27.6855 -7.04102 C 27.6855 -14.0039 21.9238 -19.7559 14.9609 -19.7559 C 7.99805 -19.7559 2.25586 -14.0039 2.25586 -7.04102 C 2.25586 -0.078125 8.00781 5.67383 14.9707 5.67383 Z M 14.9707 3.85742 C 8.92578 3.85742 4.08203 -1.00586 4.08203 -7.04102 C 4.08203 -13.0762 8.91602 -17.9395 14.9609 -17.9395 C 20.9961 -17.9395 25.8594 -13.0762 25.8691 -7.04102 C 25.8789 -1.00586 21.0059 3.85742 14.9707 3.85742 Z M 14.9414 -1.06445 C 15.5176 -1.06445 15.8594 -1.45508 15.8594 -2.06055 L 15.8594 -6.13281 L 20.0977 -6.13281 C 20.6934 -6.13281 21.1133 -6.46484 21.1133 -7.02148 C 21.1133 -7.59766 20.7227 -7.93945 20.0977 -7.93945 L 15.8594 -7.93945 L 15.8594 -12.1875 C 15.8594 -12.8027 15.5176 -13.1934 14.9414 -13.1934 C 14.3848 -13.1934 14.0625 -12.7832 14.0625 -12.1875 L 14.0625 -7.93945 L 9.82422 -7.93945 C 9.20898 -7.93945 8.80859 -7.59766 8.80859 -7.02148 C 8.80859 -6.46484 9.23828 -6.13281 9.82422 -6.13281 L 14.0625 -6.13281 L 14.0625 -2.06055 C 14.0625 -1.47461 14.3848 -1.06445 14.9414 -1.06445 Z"/>
  </g>
  <text style="stroke:none;fill:black;font-family:-apple-system,&quot;SF Pro Display&quot;,&quot;SF Pro Text&quot;,Helvetica,sans-serif;font-weight:bold;" transform="matrix(1 0 0 1 263 1953)">Design Variations</text>
  <text style="stroke:none;fill:black;font-family:-apple-system,&quot;SF Pro Display&quot;,&quot;SF Pro Text&quot;,Helvetica,sans-serif;" transform="matrix(1 0 0 1 263 1971)">Symbols are supported in up to nine weights and three scales.</text>
  <text style="stroke:none;fill:black;font-family:-apple-system,&quot;SF Pro Display&quot;,&quot;SF Pro Text&quot;,Helvetica,sans-serif;" transform="matrix(1 0 0 1 263 1989)">For optimal layout with text and other symbols, vertically align</text>
  <text style="stroke:none;fill:black;font-family:-apple-system,&quot;SF Pro Display&quot;,&quot;SF Pro Text&quot;,Helvetica,sans-serif;" transform="matrix(1 0 0 1 263 2007)">symbols with the adjacent text.</text>
  <rect height="14" id="" style="fill:#00AEEF;stroke:none;opacity:0.4;" width="3" x="776" y="1919"/>
  <g id="" transform="matrix(1 0 0 1 779 1933)">
   <path d="M 10.5273 0 L 12.373 0 L 7.17773 -14.0918 L 5.43945 -14.0918 L 0.244141 0 L 2.08984 0 L 3.50586 -4.0332 L 9.11133 -4.0332 Z M 6.2793 -11.9531 L 6.33789 -11.9531 L 8.59375 -5.52734 L 4.02344 -5.52734 Z"/>
  </g>
  <rect height="14" id="" style="fill:#00AEEF;stroke:none;opacity:0.4;" width="3" x="791.617" y="1919"/>
  <text style="stroke:none;fill:black;font-family:-apple-system,&quot;SF Pro Display&quot;,&quot;SF Pro Text&quot;,Helvetica,sans-serif;font-weight:bold;" transform="matrix(1 0 0 1 776 1953)">Side Bearings</text>
  <text style="stroke:none;fill:black;font-family:-apple-system,&quot;SF Pro Display&quot;,&quot;SF Pro Text&quot;,Helvetica,sans-serif;" transform="matrix(1 0 0 1 776 1971)">Horizontal padding on the left and right side of each symbol</text>
  <text style="stroke:none;fill:black;font-family:-apple-system,&quot;SF Pro Display&quot;,&quot;SF Pro Text&quot;,Helvetica,sans-serif;" transform="matrix(1 0 0 1 776 1989)">can be adjusted by modifying the width of the blue rectangles.</text>
  <text style="stroke:none;fill:black;font-family:-apple-system,&quot;SF Pro Display&quot;,&quot;SF Pro Text&quot;,Helvetica,sans-serif;" transform="matrix(1 0 0 1 776 2007)">Modifications are automatically applied proportionally to all</text>
  <text style="stroke:none;fill:black;font-family:-apple-system,&quot;SF Pro Display&quot;,&quot;SF Pro Text&quot;,Helvetica,sans-serif;" transform="matrix(1 0 0 1 776 2025)">scales and weights.</text>
  <g id="" transform="matrix(1 0 0 1 1289 1933)">
   <path d="M 2.96875 2.35352 L 3.80859 3.19336 C 4.84375 4.22852 6.12305 4.15039 7.19727 2.97852 L 16.1621 -6.82617 C 16.5527 -6.74805 16.9629 -6.8457 17.4902 -7.02148 C 18.1738 -7.25586 18.2715 -7.25586 18.3887 -7.13867 C 18.5352 -7.01172 18.4863 -6.89453 18.2422 -6.25 C 17.8809 -5.33203 17.8125 -4.79492 18.5547 -4.02344 L 19.4238 -3.13477 C 20.2734 -2.24609 21.3281 -2.26562 22.2168 -3.14453 L 25.0586 -5.97656 C 25.9473 -6.86523 25.957 -7.92969 25.0781 -8.7793 L 24.1797 -9.64844 C 23.4082 -10.4004 22.8711 -10.3516 21.9629 -9.98047 C 21.3184 -9.72656 21.2012 -9.6875 21.0645 -9.81445 C 20.9375 -9.93164 20.9473 -10.0391 21.1816 -10.7129 C 21.5332 -11.6895 21.5723 -12.2852 20.752 -13.0957 L 19.3359 -14.5117 C 15.1953 -18.6133 11.2305 -18.7402 7.65625 -15.4395 C 7.08008 -14.9023 6.99219 -14.1504 7.53906 -13.6133 L 7.79297 -13.3594 C 8.22266 -12.9297 8.86719 -12.8418 9.41406 -13.1152 C 11.0645 -13.9453 12.2559 -14.0234 13.457 -12.9785 L 13.0273 -11.416 C 12.8516 -10.8008 12.793 -10.3418 12.9199 -9.93164 L 3.18359 -1.04492 C 2.02148 0.0292969 1.93359 1.32812 2.96875 2.35352 Z M 8.96484 -14.4922 C 8.89648 -14.5703 8.86719 -14.6582 8.99414 -14.7559 C 11.709 -17.2852 15.0391 -16.8457 18.3496 -13.5254 L 19.6973 -12.168 C 20.0879 -11.7773 20.0977 -11.582 19.8828 -10.8691 C 19.6582 -10.127 19.502 -9.53125 20.1465 -8.88672 C 20.8105 -8.22266 21.2891 -8.41797 22.207 -8.63281 C 22.9004 -8.79883 23.0664 -8.79883 23.4473 -8.41797 L 24.0918 -7.77344 C 24.4043 -7.48047 24.4141 -7.32422 24.0723 -6.97266 L 21.2207 -4.13086 C 20.8887 -3.79883 20.7227 -3.79883 20.4297 -4.10156 L 19.7852 -4.75586 C 19.4141 -5.13672 19.4141 -5.30273 19.5801 -6.01562 C 19.7852 -6.88477 19.9805 -7.38281 19.3262 -8.04688 C 18.6719 -8.7207 18.0762 -8.57422 17.3438 -8.33008 C 16.5625 -8.06641 16.3281 -8.06641 15.8984 -8.49609 L 14.6094 -9.78516 C 14.1699 -10.2246 14.1309 -10.4395 14.2676 -10.9082 L 15.0293 -13.3984 C 13.3887 -15.2832 11.4941 -15.5566 9.20898 -14.4434 C 9.11133 -14.3945 9.04297 -14.4141 8.96484 -14.4922 Z M 3.96484 1.36719 C 3.52539 0.927734 3.54492 0.537109 4.14062 -0.00976562 L 13.7402 -8.81836 L 15 -7.55859 L 6.17188 2.02148 C 5.625 2.60742 5.24414 2.64648 4.79492 2.19727 Z"/>
  </g>
  <text style="stroke:none;fill:black;font-family:-apple-system,&quot;SF Pro Display&quot;,&quot;SF Pro Text&quot;,Helvetica,sans-serif;font-weight:bold;" transform="matrix(1 0 0 1 1289 1953)">Exporting</text>
  <text style="stroke:none;fill:black;font-family:-apple-system,&quot;SF Pro Display&quot;,&quot;SF Pro Text&quot;,Helvetica,sans-serif;" transform="matrix(1 0 0 1 1289 1971)">Symbols should be outlined when exporting to ensure the</text>
  <text style="stroke:none;fill:black;font-family:-apple-system,&quot;SF Pro Display&quot;,&quot;SF Pro Text&quot;,Helvetica,sans-serif;" transform="matrix(1 0 0 1 1289 1989)">design is preserved when submitting to Xcode.</text>
  <text id="template-version" style="stroke:none;fill:black;font-family:-apple-system,&quot;SF Pro Display&quot;,&quot;SF Pro Text&quot;,Helvetica,sans-serif;text-anchor:end;" transform="matrix(1 0 0 1 3036 1933)">Template v.0.1</text>
  <text style="stroke:none;fill:black;font-family:-apple-system,&quot;SF Pro Display&quot;,&quot;SF Pro Text&quot;,Helvetica,sans-serif;text-anchor:end;" transform="matrix(1 0 0 1 3036 1951)">Generated from hourglass</text>
  <text style="stroke:none;fill:black;font-family:-apple-system,&quot;SF Pro Display&quot;,&quot;SF Pro Text&quot;,Helvetica,sans-serif;text-anchor:end;" transform="matrix(1 0 0 1 3036 1969)">Typeset at 100 points</text>
  <text style="stroke:none;fill:black;font-family:-apple-system,&quot;SF Pro Display&quot;,&quot;SF Pro Text&quot;,Helvetica,sans-serif;" transform="matrix(1 0 0 1 263 726)">Small</text>
  <text style="stroke:none;fill:black;font-family:-apple-system,&quot;SF Pro Display&quot;,&quot;SF Pro Text&quot;,Helvetica,sans-serif;" transform="matrix(1 0 0 1 263 1156)">Medium</text>
  <text style="stroke:none;fill:black;font-family:-apple-system,&quot;SF Pro Display&quot;,&quot;SF Pro Text&quot;,Helvetica,sans-serif;" transform="matrix(1 0 0 1 263 1586)">Large</text>
 </g>
 <g id="Guides">
  <g id="H-reference" style="fill:#27AAE1;stroke:none;" transform="matrix(1 0 0 1 339 696)">
   <path d="M 54.9316 0 L 57.666 0 L 30.5664 -70.459 L 28.0762 -70.459 L 0.976562 0 L 3.66211 0 L 12.9395 -24.4629 L 45.7031 -24.4629 Z M 29.1992 -67.0898 L 29.4434 -67.0898 L 44.8242 -26.709 L 13.8184 -26.709 Z"/>
  </g>
  <line id="Baseline-S" style="fill:none;stroke:#27AAE1;opacity:1;stroke-width:0.577;" x1="263" x2="3036" y1="696" y2="696"/>
  <line id="Capline-S" style="fill:none;stroke:#27AAE1;opacity:1;stroke-width:0.577;" x1="263" x2="3036" y1="625.541" y2="625.541"/>
  <g id="H-reference" style="fill:#27AAE1;stroke:none;" transform="matrix(1 0 0 1 339 1126)">
   <path d="M 54.9316 0 L 57.666 0 L 30.5664 -70.459 L 28.0762 -70.459 L 0.976562 0 L 3.66211 0 L 12.9395 -24.4629 L 45.7031 -24.4629 Z M 29.1992 -67.0898 L 29.4434 -67.0898 L 44.8242 -26.709 L 13.8184 -26.709 Z"/>
  </g>
  <line id="Baseline-M" style="fill:none;stroke:#27AAE1;opacity:1;stroke-width:0.577;" x1="263" x2="3036" y1="1126" y2="1126"/>
  <line id="Capline-M" style="fill:none;stroke:#27AAE1;opacity:1;stroke-width:0.577;" x1="263" x2="3036" y1="1055.54" y2="1055.54"/>
  <g id="H-reference" style="fill:#27AAE1;stroke:none;" transform="matrix(1 0 0 1 339 1556)">
   <path d="M 54.9316 0 L 57.666 0 L 30.5664 -70.459 L 28.0762 -70.459 L 0.976562 0 L 3.66211 0 L 12.9395 -24.4629 L 45.7031 -24.4629 Z M 29.1992 -67.0898 L 29.4434 -67.0898 L 44.8242 -26.709 L 13.8184 -26.709 Z"/>
  </g>
  <line id="Baseline-L" style="fill:none;stroke:#27AAE1;opacity:1;stroke-width:0.577;" x1="263" x2="3036" y1="1556" y2="1556"/>
  <line id="Capline-L" style="fill:none;stroke:#27AAE1;opacity:1;stroke-width:0.577;" x1="263" x2="3036" y1="1485.54" y2="1485.54"/>
  <rect height="119.336" id="left-margin" style="fill:#00AEEF;stroke:none;opacity:0.4;" width="12.4512" x="1405.9" y="1030.79"/>
  <rect height="119.336" id="right-margin" style="fill:#00AEEF;stroke:none;opacity:0.4;" width="12.4999" x="1481.29" y="1030.79"/>
 </g>
 <g id="Symbols">
  <g id="Ultralight-S" transform="matrix(1 0 0 1 527.948 696)">
   <path d="M 14.3555 -1.5625 L 49.1211 -1.5625 C 52.0996 -1.5625 53.6621 -3.17383 53.7109 -6.15234 L 53.7598 -8.39844 C 53.9551 -17.4316 42.6758 -27.6855 37.5977 -31.7383 C 36.1816 -32.8613 35.6934 -33.9355 35.6934 -35.2051 C 35.6934 -36.4746 36.1328 -37.4023 37.5977 -38.6719 C 42.627 -43.0664 53.7109 -52.832 53.7109 -61.9141 L 53.7109 -64.1602 C 53.7109 -67.1387 52.0996 -68.75 49.1211 -68.75 L 14.3555 -68.75 C 11.377 -68.75 9.76562 -67.1387 9.76562 -64.1602 L 9.76562 -61.9141 C 9.76562 -52.832 20.8496 -43.0176 25.9277 -38.6719 C 27.3926 -37.4023 27.832 -36.4746 27.832 -35.2051 C 27.832 -33.9355 27.3438 -32.8613 25.9277 -31.7383 C 20.8496 -27.6855 9.76562 -17.4316 9.76562 -8.39844 L 9.76562 -6.15234 C 9.76562 -3.17383 11.377 -1.5625 14.3555 -1.5625 Z M 17.3828 -4.63867 C 16.0156 -4.63867 15.4785 -5.9082 16.6992 -6.88477 L 29.4922 -17.4316 C 29.8828 -17.7734 30.2246 -18.0176 30.2246 -18.5547 L 30.2246 -36.4746 C 30.2246 -38.4277 29.6387 -39.3555 28.418 -40.4297 C 26.6113 -42.1387 22.4121 -45.5566 20.6055 -48.1445 C 20.0195 -48.9258 20.1172 -49.6094 20.8496 -49.6094 L 42.5781 -49.6094 C 43.3105 -49.6094 43.4082 -48.9258 42.8223 -48.1445 C 41.0156 -45.5566 36.8652 -42.0898 35.0098 -40.5273 C 33.6914 -39.4531 33.2031 -38.4277 33.2031 -36.4746 L 33.2031 -18.5547 C 33.2031 -18.0176 33.5938 -17.7734 33.9844 -17.4316 L 46.7773 -6.88477 C 48.0469 -5.9082 47.4609 -4.63867 46.0938 -4.63867 Z"/>
  </g>
  <g id="Thin-S" transform="matrix(1 0 0 1 823.927 696)">
   <path d="M 14.6973 -1.12305 L 50.1465 -1.12305 C 53.3691 -1.12305 55.1758 -2.88086 55.1758 -6.20117 L 55.2246 -8.10547 C 55.3711 -17.5781 44.0918 -27.3438 39.0625 -31.543 C 37.6465 -32.7148 37.1094 -33.8379 37.1094 -35.2051 C 37.1094 -36.6211 37.6465 -37.5977 39.0625 -38.916 C 44.043 -43.4082 55.1758 -52.6855 55.1758 -62.2559 L 55.1758 -64.1602 C 55.1758 -67.4805 53.3691 -69.2383 50.1465 -69.2383 L 14.6973 -69.2383 C 11.5234 -69.2383 9.76562 -67.4805 9.76562 -64.2578 L 9.76562 -62.2559 C 9.76562 -52.6855 20.8984 -43.3594 25.9277 -38.916 C 27.3438 -37.5977 27.8809 -36.6211 27.8809 -35.2051 C 27.8809 -33.8379 27.3438 -32.7148 25.9277 -31.543 C 20.8984 -27.3438 9.76562 -17.5781 9.76562 -8.10547 L 9.76562 -6.05469 C 9.76562 -2.88086 11.5234 -1.12305 14.6973 -1.12305 Z M 18.0176 -4.78516 C 16.5527 -4.78516 15.9668 -6.29883 17.334 -7.37305 L 30.2246 -17.6758 C 30.6641 -18.0176 30.957 -18.2617 30.957 -18.8477 L 30.957 -36.8652 C 30.957 -38.8672 30.3711 -39.7949 29.1016 -40.918 C 27.1973 -42.6758 22.998 -45.9473 21.1914 -48.5352 C 20.5566 -49.4141 20.6543 -50.1465 21.4355 -50.1465 L 43.5059 -50.1465 C 44.2871 -50.1465 44.3359 -49.4141 43.75 -48.5352 C 41.8945 -45.9473 37.793 -42.627 35.791 -41.0156 C 34.4238 -39.8926 33.9844 -38.8672 33.9844 -36.8652 L 33.9844 -18.8477 C 33.9844 -18.2617 34.3262 -18.0176 34.7168 -17.6758 L 47.6074 -7.37305 C 49.0234 -6.29883 48.4375 -4.78516 46.9727 -4.78516 Z"/>
  </g>
  <g id="Light-S" transform="matrix(1 0 0 1 1119.2 696)">
   <path d="M 15.4297 -0.292969 L 52.1484 -0.292969 C 55.8594 -0.292969 58.0566 -2.29492 58.0566 -6.25 L 58.1055 -7.4707 C 58.1543 -17.7246 46.875 -26.6113 41.9434 -31.1523 C 40.5273 -32.4219 39.8926 -33.5938 39.8926 -35.2539 C 39.8926 -36.8652 40.5273 -37.9883 41.9434 -39.3066 C 46.875 -43.9941 58.0566 -52.3438 58.0566 -62.9883 L 58.0566 -64.1113 C 58.0566 -68.0664 55.8594 -70.1172 52.1484 -70.1172 L 15.4297 -70.1172 C 11.7676 -70.1172 9.76562 -68.0664 9.76562 -64.4043 L 9.76562 -62.9883 C 9.76562 -52.3438 20.9961 -43.9941 25.9277 -39.3066 C 27.3438 -37.9883 27.9785 -36.8652 27.9785 -35.2539 C 27.9785 -33.5938 27.2949 -32.4219 25.9277 -31.1523 C 20.9961 -26.6113 9.76562 -17.7246 9.76562 -7.4707 L 9.76562 -5.95703 C 9.76562 -2.29492 11.7676 -0.292969 15.4297 -0.292969 Z M 19.2383 -5.07812 C 17.4805 -5.07812 16.9434 -7.03125 18.6035 -8.25195 L 31.6406 -18.1641 C 32.0801 -18.5059 32.3242 -18.75 32.3242 -19.3359 L 32.3242 -37.6465 C 32.3242 -39.6484 31.8359 -40.6738 30.4688 -41.8945 C 28.3203 -43.7012 24.1699 -46.6797 22.3145 -49.3164 C 21.582 -50.3418 21.6797 -51.1719 22.6074 -51.1719 L 45.2148 -51.1719 C 46.1426 -51.1719 46.2402 -50.3418 45.5078 -49.3164 C 43.6523 -46.6797 39.502 -43.7012 37.3535 -41.8945 C 35.9375 -40.7227 35.498 -39.6484 35.498 -37.6465 L 35.498 -19.3359 C 35.498 -18.75 35.791 -18.5059 36.1816 -18.1641 L 49.2188 -8.25195 C 50.9277 -7.03125 50.3418 -5.07812 48.6328 -5.07812 Z"/>
  </g>
  <g id="Regular-S" transform="matrix(1 0 0 1 1414.83 696)">
   <path d="M 15.9668 0.390625 L 53.6621 0.390625 C 57.7637 0.390625 60.2539 -1.9043 60.2539 -6.29883 L 60.2539 -6.98242 C 60.2539 -17.8711 48.9746 -26.0742 44.0918 -30.8594 C 42.7246 -32.2266 41.9434 -33.4473 41.9434 -35.2539 C 41.9434 -37.0605 42.7246 -38.2812 44.0918 -39.6484 C 48.9746 -44.4336 60.2539 -52.0996 60.2539 -63.5254 L 60.2539 -64.1113 C 60.2539 -68.5059 57.7637 -70.8008 53.6621 -70.8008 L 15.9668 -70.8008 C 11.9629 -70.8008 9.76562 -68.5059 9.76562 -64.5508 L 9.76562 -63.5254 C 9.76562 -52.0996 21.0449 -44.4336 25.9277 -39.6484 C 27.2949 -38.2812 28.0762 -37.0605 28.0762 -35.2539 C 28.0762 -33.4473 27.2949 -32.2266 25.9277 -30.8594 C 21.0449 -26.0742 9.76562 -17.8711 9.76562 -6.98242 L 9.76562 -5.85938 C 9.76562 -1.9043 11.9629 0.390625 15.9668 0.390625 Z M 20.166 -5.32227 C 18.2129 -5.32227 17.627 -7.56836 19.5801 -8.98438 L 32.7148 -18.5547 C 33.1543 -18.8965 33.3496 -19.1406 33.3496 -19.7266 L 33.3496 -38.2324 C 33.3496 -40.2832 32.959 -41.3574 31.4453 -42.5781 C 29.1992 -44.4824 25.0977 -47.2656 23.1934 -49.9023 C 22.3633 -51.0254 22.4609 -51.9531 23.4863 -51.9531 L 46.5332 -51.9531 C 47.5586 -51.9531 47.6562 -51.0254 46.8262 -49.9023 C 44.9219 -47.2656 40.8203 -44.4824 38.5742 -42.627 C 37.0605 -41.3574 36.6699 -40.2832 36.6699 -38.2324 L 36.6699 -19.7266 C 36.6699 -19.1406 36.8652 -18.8965 37.3047 -18.5547 L 50.4883 -8.98438 C 52.3926 -7.56836 51.8066 -5.32227 49.8535 -5.32227 Z"/>
  </g>
  <g id="Medium-S" transform="matrix(1 0 0 1 1711.16 696)">
   <path d="M 16.3086 0.976562 L 54.1504 0.976562 C 58.4961 0.976562 61.0352 -1.41602 61.0352 -5.81055 L 61.0352 -6.73828 C 61.0352 -17.7246 49.4141 -26.123 44.873 -30.6641 C 43.457 -32.0801 42.627 -33.3008 42.627 -35.2539 C 42.627 -37.207 43.457 -38.3789 44.873 -39.8438 C 49.4141 -44.3359 61.0352 -52.3438 61.0352 -63.7207 L 61.0352 -64.5996 C 61.0352 -68.9941 58.4961 -71.3867 54.1504 -71.3867 L 16.3086 -71.3867 C 12.0605 -71.3867 9.76562 -68.9941 9.76562 -64.9414 L 9.76562 -63.7207 C 9.76562 -52.3438 21.3867 -44.3848 25.9277 -39.8438 C 27.3438 -38.3789 28.1738 -37.207 28.1738 -35.2539 C 28.1738 -33.3008 27.3438 -32.0801 25.9277 -30.6641 C 21.3867 -26.123 9.76562 -17.7246 9.76562 -6.73828 L 9.76562 -5.46875 C 9.76562 -1.41602 12.0605 0.976562 16.3086 0.976562 Z M 20.8984 -5.66406 C 18.7988 -5.66406 18.0664 -8.10547 20.0195 -9.52148 L 32.959 -19.0918 C 33.3496 -19.3848 33.5938 -19.6777 33.5938 -20.2148 L 33.5938 -39.4043 C 33.5938 -41.3574 33.2031 -42.3828 31.6406 -43.6523 C 29.541 -45.3613 25.293 -48.4863 23.291 -51.1719 C 22.5098 -52.1973 22.6074 -53.0762 23.5352 -53.0762 L 47.2656 -53.0762 C 48.2422 -53.0762 48.291 -52.1973 47.5098 -51.1719 C 45.5078 -48.4863 41.2598 -45.3613 39.1602 -43.6523 C 37.5977 -42.4316 37.1582 -41.3574 37.1582 -39.4043 L 37.1582 -20.2148 C 37.1582 -19.6777 37.4512 -19.3848 37.8418 -19.0918 L 50.7812 -9.52148 C 52.7344 -8.10547 52.002 -5.66406 49.9023 -5.66406 Z"/>
  </g>
  <g id="Semibold-S" transform="matrix(1 0 0 1 2007.57 696)">
   <path d="M 16.5527 1.41602 L 54.541 1.41602 C 59.0332 1.41602 61.6211 -1.07422 61.6211 -5.41992 L 61.6211 -6.5918 C 61.6211 -17.627 49.707 -26.2207 45.4102 -30.4688 C 43.9941 -31.9336 43.1152 -33.2031 43.1152 -35.2539 C 43.1152 -37.3047 43.9941 -38.4766 45.4102 -39.9902 C 49.707 -44.2871 61.6211 -52.5391 61.6211 -63.8672 L 61.6211 -64.9902 C 61.6211 -69.3359 59.0332 -71.8262 54.541 -71.8262 L 16.5527 -71.8262 C 12.1582 -71.8262 9.76562 -69.3359 9.76562 -65.2344 L 9.76562 -63.8672 C 9.76562 -52.5391 21.6797 -44.2871 25.9277 -39.9902 C 27.3926 -38.4766 28.2227 -37.3047 28.2227 -35.2539 C 28.2227 -33.2031 27.3438 -31.9336 25.9277 -30.4688 C 21.6797 -26.2207 9.76562 -17.627 9.76562 -6.5918 L 9.76562 -5.17578 C 9.76562 -1.07422 12.1582 1.41602 16.5527 1.41602 Z M 21.4355 -5.95703 C 19.1895 -5.95703 18.4082 -8.49609 20.4102 -10.0098 L 33.1055 -19.4824 C 33.4961 -19.7754 33.7891 -20.1172 33.7891 -20.6055 L 33.7891 -40.332 C 33.7891 -42.1875 33.3496 -43.2129 31.7871 -44.4824 C 29.7852 -46.0449 25.4395 -49.4141 23.3398 -52.0996 C 22.6074 -53.0762 22.6562 -53.9062 23.584 -53.9062 L 47.8516 -53.9062 C 48.7305 -53.9062 48.7793 -53.0762 48.0469 -52.0996 C 45.9473 -49.4141 41.6016 -46.0449 39.5996 -44.4824 C 37.9883 -43.2617 37.5977 -42.1875 37.5977 -40.332 L 37.5977 -20.6055 C 37.5977 -20.1172 37.8906 -19.7754 38.2812 -19.4824 L 50.9766 -10.0098 C 52.9785 -8.49609 52.1973 -5.95703 49.9512 -5.95703 Z"/>
  </g>
  <g id="Bold-S" transform="matrix(1 0 0 1 2303.89 696)">
   <path d="M 16.9434 2.00195 L 55.0781 2.00195 C 59.7656 2.00195 62.4023 -0.585938 62.4023 -4.93164 L 62.4023 -6.34766 C 62.4023 -17.4316 50.0977 -26.2695 46.1914 -30.2734 C 44.7266 -31.7871 43.75 -33.0566 43.75 -35.2051 C 43.75 -37.4023 44.6777 -38.623 46.1914 -40.1855 C 50.0977 -44.1895 62.4023 -52.832 62.4023 -64.0625 L 62.4023 -65.4785 C 62.4023 -69.8242 59.7656 -72.4121 55.0781 -72.4121 L 16.9434 -72.4121 C 12.2559 -72.4121 9.76562 -69.8242 9.76562 -65.625 L 9.76562 -64.0625 C 9.76562 -52.832 22.0703 -44.1895 25.9277 -40.1855 C 27.4414 -38.5742 28.3691 -37.4023 28.3691 -35.2051 C 28.3691 -33.0566 27.3926 -31.7871 25.9277 -30.2734 C 22.0215 -26.2695 9.76562 -17.4316 9.76562 -6.34766 L 9.76562 -4.78516 C 9.76562 -0.585938 12.2559 2.00195 16.9434 2.00195 Z M 22.2168 -6.29883 C 19.7754 -6.29883 18.8477 -9.0332 20.8984 -10.5957 L 33.3496 -20.0195 C 33.6914 -20.2637 34.0332 -20.7031 34.0332 -21.0938 L 34.0332 -41.5527 C 34.0332 -43.3105 33.5938 -44.2871 31.9336 -45.5078 C 30.127 -46.9727 25.6836 -50.6348 23.4375 -53.3691 C 22.7051 -54.248 22.8027 -55.0293 23.6328 -55.0293 L 48.584 -55.0293 C 49.4141 -55.0293 49.4629 -54.248 48.7793 -53.3691 C 46.5332 -50.6348 42.0898 -46.875 40.1855 -45.5566 C 38.5254 -44.3359 38.0859 -43.3105 38.0859 -41.5527 L 38.0859 -21.0938 C 38.0859 -20.7031 38.4766 -20.2637 38.8184 -20.0195 L 51.2695 -10.5957 C 53.3691 -9.0332 52.3926 -6.29883 50 -6.29883 Z"/>
  </g>
  <g id="Heavy-S" transform="matrix(1 0 0 1 2600.04 696)">
   <path d="M 17.4316 2.83203 L 55.8594 2.83203 C 60.8398 2.83203 63.5254 0.0976562 63.5254 -4.24805 L 63.5254 -6.05469 C 63.5254 -17.1875 50.6836 -26.3672 47.3145 -29.9805 C 45.8008 -31.543 44.7266 -32.8125 44.7266 -35.2051 C 44.7266 -37.5977 45.752 -38.8184 47.3145 -40.4297 C 50.6836 -44.043 63.5254 -53.2227 63.5254 -64.3555 L 63.5254 -66.2109 C 63.5254 -70.5078 60.8398 -73.2422 55.8594 -73.2422 L 17.4316 -73.2422 C 12.4512 -73.2422 9.76562 -70.5078 9.76562 -66.2109 L 9.76562 -64.3555 C 9.76562 -53.2227 22.6074 -44.0918 25.9277 -40.4297 C 27.4902 -38.7695 28.5156 -37.5977 28.5156 -35.2051 C 28.5156 -32.8125 27.4414 -31.543 25.9277 -29.9805 C 22.5586 -26.3672 9.76562 -17.1875 9.76562 -6.05469 L 9.76562 -4.24805 C 9.76562 0.0976562 12.4512 2.83203 17.4316 2.83203 Z M 23.291 -6.78711 C 20.5566 -6.78711 19.4824 -9.76562 21.582 -11.4258 L 33.6914 -20.8496 C 33.9844 -21.0449 34.4238 -21.582 34.4238 -21.875 L 34.4238 -43.3105 C 34.4238 -44.873 33.9355 -45.8496 32.2266 -47.0703 C 30.6152 -48.2422 25.9766 -52.4414 23.5352 -55.2246 C 22.9004 -55.957 22.9492 -56.6406 23.6816 -56.6406 L 49.6094 -56.6406 C 50.3418 -56.6406 50.4395 -55.957 49.7559 -55.2246 C 47.3633 -52.4414 42.7246 -48.1934 41.0645 -47.0703 C 39.3066 -45.8984 38.8672 -44.873 38.8672 -43.3105 L 38.8672 -21.875 C 38.8672 -21.582 39.3555 -21.0449 39.6484 -20.8496 L 51.709 -11.4258 C 53.8574 -9.76562 52.6855 -6.78711 50.0488 -6.78711 Z"/>
  </g>
  <g id="Black-S" transform="matrix(1 0 0 1 2896.27 696)">
   <path d="M 17.8711 3.61328 L 56.543 3.61328 C 61.7676 3.61328 64.502 0.683594 64.502 -3.61328 L 64.502 -5.76172 C 64.502 -16.9922 51.2207 -26.4648 48.291 -29.6875 C 46.7285 -31.3477 45.5566 -32.666 45.5566 -35.2051 C 45.5566 -37.7441 46.6797 -38.9648 48.291 -40.6738 C 51.2207 -43.8965 64.502 -53.5645 64.502 -64.5996 L 64.502 -66.8457 C 64.502 -71.0938 61.7676 -74.0234 56.543 -74.0234 L 17.8711 -74.0234 C 12.5977 -74.0234 9.76562 -71.0938 9.76562 -66.748 L 9.76562 -64.5996 C 9.76562 -53.5645 23.0957 -43.9941 25.9277 -40.6738 C 27.5391 -38.916 28.6621 -37.7441 28.6621 -35.2051 C 28.6621 -32.666 27.4902 -31.3477 25.9277 -29.6875 C 23.0469 -26.4648 9.76562 -16.9922 9.76562 -5.76172 L 9.76562 -3.75977 C 9.76562 0.683594 12.5977 3.61328 17.8711 3.61328 Z M 24.2676 -7.22656 C 21.2891 -7.22656 20.0195 -10.498 22.2168 -12.207 L 33.9844 -21.5332 C 34.2285 -21.6797 34.7168 -22.3145 34.7168 -22.5098 L 34.7168 -44.873 C 34.7168 -46.2891 34.2285 -47.2656 32.4707 -48.4863 C 31.0547 -49.4141 26.2207 -54.0527 23.6328 -56.8848 C 23.0957 -57.4707 23.0957 -58.1055 23.7793 -58.1055 L 50.5859 -58.1055 C 51.2207 -58.1055 51.2695 -57.4707 50.6836 -56.8848 C 48.0957 -54.0527 43.3105 -49.3164 41.8457 -48.4863 C 39.9902 -47.3145 39.5508 -46.2891 39.5508 -44.873 L 39.5508 -22.5098 C 39.5508 -22.3145 40.1367 -21.6797 40.3809 -21.5332 L 52.0996 -12.207 C 54.3457 -10.498 52.9785 -7.22656 50.0977 -7.22656 Z"/>
  </g>
  <g id="Ultralight-M" transform="matrix(1 0 0 1 519.452 1126)">
   <path d="M 18.1641 7.56836 L 62.3047 7.56836 C 66.0156 7.56836 67.9199 5.61523 67.9688 1.9043 L 68.0664 -1.12305 C 68.3105 -12.5 53.9062 -25.7812 47.4121 -30.8594 C 45.6055 -32.2754 44.9707 -33.6426 44.9707 -35.2051 C 44.9707 -36.7676 45.5566 -37.9395 47.4121 -39.5508 C 53.8574 -45.166 67.9688 -57.7637 67.9688 -69.1406 L 67.9688 -72.168 C 67.9688 -75.8789 66.0156 -77.832 62.3047 -77.832 L 18.1641 -77.832 C 14.4531 -77.832 12.4512 -75.8789 12.4512 -72.168 L 12.4512 -69.1406 C 12.4512 -57.7637 26.6113 -45.0684 33.1055 -39.5508 C 34.9609 -37.9395 35.498 -36.7676 35.498 -35.2051 C 35.498 -33.6426 34.9121 -32.2754 33.1055 -30.8594 C 26.6113 -25.7812 12.4512 -12.5 12.4512 -1.12305 L 12.4512 1.85547 C 12.4512 5.61523 14.4531 7.56836 18.1641 7.56836 Z M 21.9238 3.90625 C 20.2637 3.90625 19.5801 2.34375 21.0449 1.12305 L 37.4023 -12.4512 C 37.8906 -12.8418 38.3301 -13.1836 38.3301 -13.8672 L 38.3301 -36.6699 C 38.3301 -39.1602 37.5 -40.332 36.0352 -41.6992 C 33.7402 -43.7988 28.3691 -48.2422 26.0742 -51.5625 C 25.3906 -52.5391 25.4395 -53.418 26.3672 -53.418 L 54.0039 -53.418 C 54.9316 -53.418 55.0293 -52.5391 54.3457 -51.5625 C 52.002 -48.2422 46.7285 -43.75 44.3848 -41.8457 C 42.6758 -40.4785 42.041 -39.1602 42.041 -36.6699 L 42.041 -13.8672 C 42.041 -13.1836 42.5781 -12.8418 43.0664 -12.4512 L 59.375 1.12305 C 60.9375 2.34375 60.1562 3.90625 58.4961 3.90625 Z"/>
  </g>
  <g id="Thin-M" transform="matrix(1 0 0 1 815.333 1126)">
   <path d="M 18.6035 8.05664 L 63.4277 8.05664 C 67.4805 8.05664 69.6289 5.9082 69.6777 1.85547 L 69.7266 -0.78125 C 69.9219 -12.5977 55.5176 -25.3418 49.0723 -30.6152 C 47.2656 -32.1289 46.582 -33.4961 46.582 -35.2051 C 46.582 -36.9141 47.2168 -38.1348 49.0723 -39.7949 C 55.4688 -45.5078 69.6777 -57.5684 69.6777 -69.5312 L 69.6777 -72.168 C 69.6777 -76.2207 67.4805 -78.3691 63.4277 -78.3691 L 18.6035 -78.3691 C 14.5996 -78.3691 12.4512 -76.2207 12.4512 -72.2168 L 12.4512 -69.5312 C 12.4512 -57.5684 26.6602 -45.459 33.1055 -39.7949 C 34.9609 -38.1348 35.5957 -36.9141 35.5957 -35.2051 C 35.5957 -33.4961 34.9121 -32.1289 33.1055 -30.6152 C 26.6602 -25.3418 12.4512 -12.5977 12.4512 -0.78125 L 12.4512 1.95312 C 12.4512 5.9082 14.5996 8.05664 18.6035 8.05664 Z M 22.6562 3.71094 C 20.8496 3.71094 20.1172 1.95312 21.7773 0.585938 L 38.2324 -12.6953 C 38.7207 -13.1348 39.1113 -13.4766 39.1113 -14.1602 L 39.1113 -37.1094 C 39.1113 -39.5996 38.3789 -40.8203 36.8164 -42.2363 C 34.375 -44.4336 29.0527 -48.6816 26.709 -52.002 C 25.9766 -53.0762 26.0254 -54.0039 27.0508 -54.0039 L 55.0293 -54.0039 C 56.0059 -54.0039 56.1035 -53.0762 55.3711 -52.002 C 53.0273 -48.6816 47.7539 -44.3848 45.2637 -42.334 C 43.5547 -40.918 42.9688 -39.5996 42.9688 -37.1094 L 42.9688 -14.1602 C 42.9688 -13.4766 43.4082 -13.1348 43.8965 -12.6953 L 60.3027 0.585938 C 62.0605 1.95312 61.2793 3.71094 59.4727 3.71094 Z"/>
  </g>
  <g id="Light-M" transform="matrix(1 0 0 1 1110.43 1126)">
   <path d="M 19.3848 9.0332 L 65.7227 9.0332 C 70.2637 9.0332 72.9004 6.54297 72.9004 1.80664 L 72.9492 -0.0488281 C 73.0957 -12.8418 58.6914 -24.5117 52.3438 -30.1758 C 50.5371 -31.7871 49.707 -33.252 49.707 -35.2539 C 49.707 -37.207 50.5371 -38.5742 52.3438 -40.2832 C 58.6426 -46.1914 72.9004 -57.2266 72.9004 -70.3613 L 72.9004 -72.1191 C 72.9004 -76.9043 70.2637 -79.3945 65.7227 -79.3945 L 19.3848 -79.3945 C 14.8926 -79.3945 12.4512 -76.9043 12.4512 -72.4121 L 12.4512 -70.3613 C 12.4512 -57.2266 26.7578 -46.1426 33.1055 -40.2832 C 34.9121 -38.5742 35.6934 -37.207 35.6934 -35.2539 C 35.6934 -33.252 34.8633 -31.7871 33.1055 -30.1758 C 26.7578 -24.5117 12.4512 -12.8418 12.4512 -0.0488281 L 12.4512 2.09961 C 12.4512 6.54297 14.8926 9.0332 19.3848 9.0332 Z M 24.0234 3.36914 C 21.9238 3.36914 21.1914 1.07422 23.2422 -0.439453 L 39.7949 -13.2324 C 40.332 -13.6719 40.6738 -14.0137 40.6738 -14.6973 L 40.6738 -37.9883 C 40.6738 -40.5273 40.0391 -41.8457 38.3301 -43.3105 C 35.6934 -45.6055 30.3711 -49.5605 28.0273 -52.8809 C 27.1484 -54.1504 27.2461 -55.1758 28.3691 -55.1758 L 56.9824 -55.1758 C 58.1055 -55.1758 58.2031 -54.1504 57.3242 -52.8809 C 54.9805 -49.5605 49.707 -45.5566 47.0703 -43.3594 C 45.2148 -41.8945 44.6777 -40.5273 44.6777 -37.9883 L 44.6777 -14.6973 C 44.6777 -14.0137 45.0684 -13.6719 45.5566 -13.2324 L 62.1582 -0.439453 C 64.209 1.07422 63.4766 3.36914 61.377 3.36914 Z"/>
  </g>
  <g id="Regular-M" transform="matrix(1 0 0 1 1405.9 1126)">
   <path d="M 20.0195 9.76562 L 67.4316 9.76562 C 72.4121 9.76562 75.3906 7.03125 75.3906 1.75781 L 75.3906 0.488281 C 75.4395 -12.9883 61.084 -23.9258 54.7852 -29.8828 C 53.0273 -31.543 52.0996 -33.0566 52.0996 -35.2539 C 52.0996 -37.4512 53.0273 -38.916 54.7852 -40.625 C 61.0352 -46.6797 75.3906 -56.9336 75.3906 -70.9473 L 75.3906 -72.1191 C 75.3906 -77.3926 72.4121 -80.127 67.4316 -80.127 L 20.0195 -80.127 C 15.1367 -80.127 12.4512 -77.3926 12.4512 -72.5586 L 12.4512 -70.9473 C 12.4512 -56.9336 26.8066 -46.6797 33.1055 -40.625 C 34.8633 -38.916 35.791 -37.4512 35.791 -35.2539 C 35.791 -33.0566 34.8633 -31.543 33.1055 -29.8828 C 26.8066 -23.9258 12.4512 -12.9883 12.4512 0.488281 L 12.4512 2.19727 C 12.4512 7.03125 15.1367 9.76562 20.0195 9.76562 Z M 25.0977 3.07617 C 22.7539 3.07617 22.0215 0.488281 24.3164 -1.2207 L 41.0156 -13.6719 C 41.5527 -14.1113 41.8457 -14.4043 41.8457 -15.1367 L 41.8457 -38.623 C 41.8457 -41.2598 41.3086 -42.5781 39.4531 -44.1406 C 36.6699 -46.4844 31.3965 -50.1953 29.0039 -53.5645 C 28.0273 -54.9316 28.125 -56.0547 29.3457 -56.0547 L 58.4961 -56.0547 C 59.7168 -56.0547 59.8145 -54.9316 58.8379 -53.5645 C 56.4453 -50.1953 51.2207 -46.4844 48.3887 -44.1406 C 46.5332 -42.5781 45.9961 -41.2598 45.9961 -38.623 L 45.9961 -15.1367 C 45.9961 -14.4043 46.2891 -14.1113 46.8262 -13.6719 L 63.5742 -1.2207 C 65.8691 0.488281 65.0879 3.07617 62.793 3.07617 Z"/>
  </g>
  <g id="Medium-M" transform="matrix(1 0 0 1 1702.07 1126)">
   <path d="M 20.4102 10.4492 L 68.1641 10.4492 C 73.4375 10.4492 76.4648 7.56836 76.4648 2.24609 L 76.4648 0.78125 C 76.5137 -12.8418 61.7676 -23.9258 55.8594 -29.5898 C 54.0527 -31.3477 53.0273 -32.9102 53.0273 -35.2539 C 53.0273 -37.5977 54.0039 -39.0625 55.8594 -40.8691 C 61.7676 -46.6309 76.4648 -57.1777 76.4648 -71.2402 L 76.4648 -72.6074 C 76.4648 -77.9297 73.4375 -80.8105 68.1641 -80.8105 L 20.4102 -80.8105 C 15.2832 -80.8105 12.4512 -77.9297 12.4512 -72.9492 L 12.4512 -71.2402 C 12.4512 -57.1777 27.1973 -46.6309 33.1055 -40.8691 C 34.9121 -39.0625 35.8887 -37.5977 35.8887 -35.2539 C 35.8887 -32.9102 34.8633 -31.3477 33.1055 -29.5898 C 27.1973 -23.9258 12.4512 -12.8418 12.4512 0.78125 L 12.4512 2.58789 C 12.4512 7.56836 15.2832 10.4492 20.4102 10.4492 Z M 25.9766 2.73438 C 23.4375 2.73438 22.5586 -0.146484 24.9023 -1.9043 L 41.4062 -14.2578 C 41.8945 -14.6484 42.2363 -15.0391 42.2363 -15.7227 L 42.2363 -39.9414 C 42.2363 -42.4316 41.6504 -43.75 39.7461 -45.3125 C 37.1094 -47.5098 31.7383 -51.5137 29.1992 -54.8828 C 28.2715 -56.2012 28.3691 -57.2754 29.541 -57.2754 L 59.4238 -57.2754 C 60.5957 -57.2754 60.6934 -56.2012 59.7168 -54.8828 C 57.2266 -51.5137 51.8066 -47.4609 49.1699 -45.3125 C 47.2168 -43.7988 46.6797 -42.4316 46.6797 -39.9414 L 46.6797 -15.7227 C 46.6797 -15.0391 47.0215 -14.6484 47.5586 -14.2578 L 64.0137 -1.9043 C 66.4062 -0.146484 65.5273 2.73438 62.9883 2.73438 Z"/>
  </g>
  <g id="Semibold-M" transform="matrix(1 0 0 1 1998.39 1126)">
   <path d="M 20.752 10.9863 L 68.7012 10.9863 C 74.1699 10.9863 77.2949 7.95898 77.2949 2.58789 L 77.2949 1.02539 C 77.3438 -12.7441 62.3047 -23.9258 56.6406 -29.3945 C 54.834 -31.2012 53.7598 -32.7637 53.7598 -35.2539 C 53.7598 -37.6953 54.7852 -39.209 56.6406 -41.0645 C 62.3047 -46.6309 77.2949 -57.3242 77.2949 -71.4355 L 77.2949 -72.998 C 77.2949 -78.3691 74.1699 -81.3477 68.7012 -81.3477 L 20.752 -81.3477 C 15.3809 -81.3477 12.4512 -78.3691 12.4512 -73.291 L 12.4512 -71.4355 C 12.4512 -57.3242 27.4902 -46.6309 33.1055 -41.0645 C 34.9609 -39.209 35.9863 -37.6953 35.9863 -35.2539 C 35.9863 -32.7637 34.9121 -31.2012 33.1055 -29.3945 C 27.4902 -23.9258 12.4512 -12.7441 12.4512 1.02539 L 12.4512 2.88086 C 12.4512 7.95898 15.3809 10.9863 20.752 10.9863 Z M 26.6113 2.44141 C 23.9258 2.44141 22.9492 -0.634766 25.3906 -2.44141 L 41.6992 -14.7461 C 42.1875 -15.0879 42.5293 -15.5273 42.5293 -16.1621 L 42.5293 -40.9668 C 42.5293 -43.3594 41.9434 -44.6289 39.9902 -46.1914 C 37.4512 -48.291 31.9824 -52.5391 29.3457 -55.957 C 28.418 -57.1777 28.5156 -58.2031 29.6387 -58.2031 L 60.1074 -58.2031 C 61.2305 -58.2031 61.3281 -57.1777 60.4004 -55.957 C 57.7637 -52.5391 52.2949 -48.2422 49.7559 -46.2402 C 47.7539 -44.6777 47.2168 -43.3594 47.2168 -40.9668 L 47.2168 -16.1621 C 47.2168 -15.5273 47.6074 -15.0879 48.0957 -14.7461 L 64.4043 -2.44141 C 66.7969 -0.634766 65.8203 2.44141 63.1348 2.44141 Z"/>
  </g>
  <g id="Bold-M" transform="matrix(1 0 0 1 2294.54 1126)">
   <path d="M 21.1914 11.6699 L 69.4336 11.6699 C 75.1953 11.6699 78.3691 8.49609 78.3691 3.07617 L 78.3691 1.31836 C 78.418 -12.5977 62.9883 -23.9258 57.7148 -29.1504 C 55.8594 -31.0059 54.7363 -32.5684 54.7363 -35.2051 C 54.7363 -37.8418 55.8594 -39.3555 57.7148 -41.3086 C 62.9883 -46.582 78.3691 -57.5684 78.3691 -71.7285 L 78.3691 -73.4863 C 78.3691 -78.9062 75.1953 -82.0312 69.4336 -82.0312 L 21.1914 -82.0312 C 15.5273 -82.0312 12.4512 -78.9062 12.4512 -73.7305 L 12.4512 -71.7285 C 12.4512 -57.5684 27.8809 -46.582 33.1055 -41.3086 C 34.9609 -39.3555 36.084 -37.8418 36.084 -35.2051 C 36.084 -32.5684 34.9609 -31.0059 33.1055 -29.1504 C 27.832 -23.9258 12.4512 -12.5977 12.4512 1.31836 L 12.4512 3.32031 C 12.4512 8.49609 15.5273 11.6699 21.1914 11.6699 Z M 27.4902 2.05078 C 24.6094 2.05078 23.4863 -1.2207 26.0254 -3.125 L 42.041 -15.332 C 42.5293 -15.6738 42.9199 -16.1621 42.9199 -16.748 L 42.9199 -42.2852 C 42.9199 -44.5312 42.334 -45.8496 40.332 -47.4121 C 37.9395 -49.3164 32.3242 -53.8574 29.541 -57.3242 C 28.6621 -58.4961 28.7598 -59.4727 29.834 -59.4727 L 61.0352 -59.4727 C 62.1094 -59.4727 62.207 -58.4961 61.3281 -57.3242 C 58.5449 -53.8574 52.9785 -49.2676 50.4883 -47.4121 C 48.4375 -45.8984 47.9004 -44.5312 47.9004 -42.2852 L 47.9004 -16.748 C 47.9004 -16.1621 48.3398 -15.6738 48.8281 -15.332 L 64.8438 -3.125 C 67.3828 -1.2207 66.2598 2.05078 63.3789 2.05078 Z"/>
  </g>
  <g id="Heavy-M" transform="matrix(1 0 0 1 2590.47 1126)">
   <path d="M 21.7773 12.6465 L 70.5078 12.6465 C 76.6113 12.6465 79.9316 9.27734 79.9316 3.80859 L 79.9805 1.70898 C 79.9805 -12.3535 64.0137 -23.9258 59.2773 -28.7598 C 57.373 -30.7617 56.1035 -32.3242 56.1035 -35.2051 C 56.1035 -38.0859 57.3242 -39.5996 59.2773 -41.6504 C 64.0137 -46.5332 79.9316 -57.9102 79.9316 -72.1191 L 79.9316 -74.2676 C 79.9316 -79.6875 76.6113 -83.0566 70.5078 -83.0566 L 21.7773 -83.0566 C 15.7227 -83.0566 12.4512 -79.6875 12.4512 -74.3164 L 12.4512 -72.1191 C 12.4512 -57.9102 28.4668 -46.582 33.1055 -41.6504 C 35.0586 -39.5508 36.2793 -38.0859 36.2793 -35.2051 C 36.2793 -32.3242 35.0098 -30.7617 33.1055 -28.7598 C 28.418 -23.9258 12.4512 -12.3535 12.4512 1.70898 L 12.4512 3.90625 C 12.4512 9.27734 15.7227 12.6465 21.7773 12.6465 Z M 28.8086 1.46484 C 25.5859 1.46484 24.2676 -2.09961 26.9043 -4.15039 L 42.627 -16.2109 C 43.0176 -16.5039 43.5059 -17.1387 43.5059 -17.5781 L 43.5059 -44.1895 C 43.5059 -46.2891 42.9199 -47.5586 40.8203 -49.1211 C 38.5742 -50.8301 32.8125 -55.8105 29.834 -59.3262 C 29.0039 -60.3516 29.0527 -61.2793 30.0781 -61.2793 L 62.4023 -61.2793 C 63.3789 -61.2793 63.4766 -60.3516 62.5977 -59.3262 C 59.668 -55.8105 53.9062 -50.7324 51.6113 -49.1211 C 49.4629 -47.6074 48.877 -46.2891 48.877 -44.1895 L 48.877 -17.5781 C 48.877 -17.1387 49.4629 -16.5039 49.8535 -16.2109 L 65.5273 -4.15039 C 68.1641 -2.09961 66.8457 1.46484 63.6719 1.46484 Z"/>
  </g>
  <g id="Black-M" transform="matrix(1 0 0 1 2886.48 1126)">
   <path d="M 22.3633 13.5742 L 71.4844 13.5742 C 77.9297 13.5742 81.3477 10.0098 81.3477 4.44336 L 81.3477 2.09961 C 81.3477 -12.1582 64.9414 -23.9258 60.6934 -28.418 C 58.7402 -30.5176 57.373 -32.1289 57.373 -35.2051 C 57.373 -38.2812 58.6914 -39.8438 60.6934 -41.9434 C 64.9414 -46.4844 81.3477 -58.252 81.3477 -72.5098 L 81.3477 -74.9023 C 81.3477 -80.3711 77.9297 -83.9355 71.4844 -83.9355 L 22.3633 -83.9355 C 15.918 -83.9355 12.4512 -80.3711 12.4512 -74.9023 L 12.4512 -72.5098 C 12.4512 -58.252 28.9551 -46.5332 33.1055 -41.9434 C 35.1074 -39.7461 36.4258 -38.2812 36.4258 -35.2051 C 36.4258 -32.1289 35.0098 -30.5176 33.1055 -28.418 C 28.9062 -23.9258 12.4512 -12.1582 12.4512 2.09961 L 12.4512 4.44336 C 12.4512 10.0098 15.918 13.5742 22.3633 13.5742 Z M 29.9316 0.976562 C 26.416 0.976562 25 -2.92969 27.7344 -5.0293 L 43.1152 -16.9922 C 43.457 -17.2363 44.043 -17.9688 44.043 -18.3105 L 44.043 -45.8984 C 44.043 -47.8516 43.4082 -49.1211 41.2109 -50.6836 C 39.1602 -52.1484 33.252 -57.5684 30.127 -61.084 C 29.2969 -62.0117 29.3457 -62.8906 30.2734 -62.8906 L 63.623 -62.8906 C 64.5508 -62.8906 64.5996 -62.0117 63.7695 -61.084 C 60.6445 -57.5684 54.7363 -52.002 52.6367 -50.6836 C 50.3418 -49.1699 49.8047 -47.8516 49.8047 -45.8984 L 49.8047 -18.3105 C 49.8047 -17.9688 50.4395 -17.2363 50.7812 -16.9922 L 66.1621 -5.0293 C 68.8965 -2.92969 67.3828 0.976562 63.9648 0.976562 Z"/>
  </g>
  <g id="Ultralight-L" transform="matrix(1 0 0 1 508.124 1556)">
   <path d="M 23.2422 19.7754 L 79.8828 19.7754 C 84.5215 19.7754 86.9141 17.334 87.0117 12.6953 L 87.0605 8.59375 C 87.4512 -5.85938 68.8477 -23.1934 60.4492 -29.6875 C 58.1055 -31.4941 57.373 -33.252 57.373 -35.2051 C 57.373 -37.1094 58.0566 -38.623 60.4492 -40.6738 C 68.75 -47.8516 87.0117 -64.4043 87.0117 -78.8086 L 87.0117 -82.8613 C 87.0117 -87.5 84.5215 -89.9902 79.8828 -89.9902 L 23.2422 -89.9902 C 18.5547 -89.9902 16.0645 -87.5 16.0645 -82.8125 L 16.0645 -78.8086 C 16.0645 -64.4043 34.3262 -47.8027 42.7246 -40.6738 C 45.1172 -38.623 45.8008 -37.1094 45.8008 -35.2051 C 45.8008 -33.252 45.0195 -31.4941 42.7246 -29.6875 C 34.3262 -23.1934 16.0645 -5.85938 16.0645 8.59375 L 16.0645 12.6465 C 16.0645 17.334 18.5547 19.7754 23.2422 19.7754 Z M 28.0273 15.332 C 25.9277 15.332 25.0488 13.4766 26.8555 11.9141 L 47.9004 -5.66406 C 48.5352 -6.25 49.1211 -6.64062 49.1211 -7.51953 L 49.1211 -36.8652 C 49.1211 -40.0879 48.0469 -41.6016 46.1426 -43.3594 C 43.2129 -46.0449 36.2793 -51.8555 33.3496 -56.1035 C 32.4707 -57.3242 32.5684 -58.4473 33.7402 -58.4473 L 69.2383 -58.4473 C 70.4102 -58.4473 70.5078 -57.3242 69.6777 -56.1035 C 66.6992 -51.8555 59.8633 -45.9473 56.8359 -43.5059 C 54.6875 -41.748 53.9062 -40.0879 53.9062 -36.8652 L 53.9062 -7.51953 C 53.9062 -6.64062 54.541 -6.25 55.1758 -5.66406 L 76.2207 11.9141 C 78.125 13.4766 77.1484 15.332 75.0977 15.332 Z"/>
  </g>
  <g id="Thin-L" transform="matrix(1 0 0 1 803.908 1556)">
   <path d="M 23.7305 20.3613 L 81.1523 20.3613 C 86.1816 20.3613 88.7695 17.6758 88.8672 12.6465 L 88.916 9.0332 C 89.2578 -5.95703 70.6543 -22.7051 62.3047 -29.4434 C 60.0098 -31.2988 59.1309 -33.1055 59.1309 -35.2051 C 59.1309 -37.3047 59.9121 -38.8672 62.3047 -40.9668 C 70.6055 -48.2422 88.8672 -64.209 88.8672 -79.248 L 88.8672 -82.8613 C 88.8672 -87.8906 86.1816 -90.5762 81.1523 -90.5762 L 23.7305 -90.5762 C 18.75 -90.5762 16.0645 -87.8906 16.0645 -82.9102 L 16.0645 -79.248 C 16.0645 -64.209 34.375 -48.1934 42.7246 -40.9668 C 45.1172 -38.8672 45.8496 -37.3047 45.8496 -35.2051 C 45.8496 -33.1055 45.0195 -31.2988 42.7246 -29.4434 C 34.375 -22.7051 16.0645 -5.95703 16.0645 9.0332 L 16.0645 12.6953 C 16.0645 17.6758 18.75 20.3613 23.7305 20.3613 Z M 28.8086 15.1367 C 26.5625 15.1367 25.6348 12.9883 27.6855 11.3281 L 48.8281 -6.00586 C 49.4629 -6.54297 50 -6.98242 50 -7.86133 L 50 -37.4023 C 50 -40.625 48.9746 -42.1387 47.0215 -43.9453 C 43.9453 -46.7285 37.0605 -52.3438 34.082 -56.5918 C 33.1543 -57.959 33.252 -59.082 34.4727 -59.082 L 70.4102 -59.082 C 71.6309 -59.082 71.7285 -57.959 70.8008 -56.5918 C 67.8223 -52.3438 60.9863 -46.6309 57.8613 -44.0918 C 55.6641 -42.2852 54.8828 -40.625 54.8828 -37.4023 L 54.8828 -7.86133 C 54.8828 -6.98242 55.4688 -6.54297 56.1523 -6.00586 L 77.2461 11.3281 C 79.3945 12.9883 78.418 15.1367 76.1719 15.1367 Z"/>
  </g>
  <g id="Light-L" transform="matrix(1 0 0 1 1098.81 1556)">
   <path d="M 24.6094 21.4355 L 83.6914 21.4355 C 89.3066 21.4355 92.4805 18.3594 92.5293 12.5488 L 92.5781 9.81445 C 92.7734 -6.25 74.1699 -21.8262 65.918 -28.9551 C 63.623 -30.957 62.6465 -32.8125 62.6465 -35.2051 C 62.6465 -37.6465 63.5742 -39.3555 65.918 -41.5039 C 74.1211 -49.0234 92.5293 -63.7695 92.5293 -80.1758 L 92.5293 -82.8613 C 92.5293 -88.6719 89.3066 -91.6992 83.6914 -91.6992 L 24.6094 -91.6992 C 19.0918 -91.6992 16.0645 -88.6719 16.0645 -83.1055 L 16.0645 -80.1758 C 16.0645 -63.7695 34.4727 -48.9746 42.7246 -41.5039 C 45.0684 -39.3555 45.9961 -37.6465 45.9961 -35.2051 C 45.9961 -32.8125 45.0195 -30.957 42.7246 -28.9551 C 34.4727 -21.8262 16.0645 -6.25 16.0645 9.81445 L 16.0645 12.8418 C 16.0645 18.3594 19.0918 21.4355 24.6094 21.4355 Z M 30.3223 14.7461 C 27.7832 14.7461 26.8555 12.0605 29.248 10.1562 L 50.5859 -6.5918 C 51.2695 -7.17773 51.7578 -7.56836 51.7578 -8.49609 L 51.7578 -38.3789 C 51.7578 -41.6504 50.8301 -43.2617 48.6816 -45.166 C 45.4102 -48.0469 38.5742 -53.2715 35.498 -57.5684 C 34.4727 -59.1309 34.5703 -60.4004 35.9375 -60.4004 L 72.6074 -60.4004 C 73.9746 -60.4004 74.0723 -59.1309 72.998 -57.5684 C 69.9707 -53.2715 63.1836 -47.998 59.8633 -45.2637 C 57.5684 -43.3594 56.7871 -41.6504 56.7871 -38.3789 L 56.7871 -8.49609 C 56.7871 -7.56836 57.3242 -7.17773 58.0078 -6.5918 L 79.2969 10.1562 C 81.7871 12.0605 80.8105 14.7461 78.2715 14.7461 Z"/>
  </g>
  <g id="Regular-L" transform="matrix(1 0 0 1 1394.16 1556)">
   <path d="M 25.293 22.2168 L 85.5957 22.2168 C 91.6992 22.2168 95.2148 18.8965 95.2637 12.5 L 95.3125 10.4492 C 95.4102 -6.39648 76.8555 -21.1426 68.6523 -28.5645 C 66.4062 -30.6641 65.2832 -32.5684 65.2832 -35.2539 C 65.2832 -37.8906 66.3574 -39.6973 68.6523 -41.8945 C 76.8066 -49.6094 95.2637 -63.4766 95.2637 -80.8594 L 95.2637 -82.8125 C 95.2637 -89.2578 91.6992 -92.5293 85.5957 -92.5293 L 25.293 -92.5293 C 19.3359 -92.5293 16.0645 -89.2578 16.0645 -83.252 L 16.0645 -80.8594 C 16.0645 -63.4766 34.5215 -49.5605 42.7246 -41.8945 C 45.0195 -39.6973 46.0938 -37.8906 46.0938 -35.2539 C 46.0938 -32.5684 44.9707 -30.6641 42.7246 -28.5645 C 34.5215 -21.1426 16.0645 -6.39648 16.0645 10.4492 L 16.0645 12.9395 C 16.0645 18.8965 19.3359 22.2168 25.293 22.2168 Z M 31.4941 14.4531 C 28.7109 14.4531 27.7344 11.3281 30.4688 9.27734 L 51.9531 -7.08008 C 52.6367 -7.61719 53.0273 -8.05664 53.0273 -8.98438 L 53.0273 -39.1113 C 53.0273 -42.4316 52.2461 -44.0918 49.9512 -46.0449 C 46.4844 -49.0234 39.6973 -54.0039 36.6211 -58.3008 C 35.4492 -60.0098 35.5469 -61.377 37.0605 -61.377 L 74.2676 -61.377 C 75.7324 -61.377 75.8789 -60.0098 74.707 -58.3008 C 71.6309 -54.0039 64.8438 -49.0234 61.3281 -46.0938 C 58.9844 -44.1406 58.252 -42.4316 58.252 -39.1113 L 58.252 -8.98438 C 58.252 -8.05664 58.6914 -7.61719 59.4238 -7.08008 L 80.8594 9.27734 C 83.6426 11.3281 82.666 14.4531 79.834 14.4531 Z"/>
  </g>
  <g id="Medium-L" transform="matrix(1 0 0 1 1690.13 1556)">
   <path d="M 25.8301 22.998 L 86.6211 22.998 C 93.0176 22.998 96.7285 19.4824 96.7285 12.9395 L 96.7773 10.791 C 96.875 -6.29883 77.9785 -20.9961 70.1172 -28.2715 C 67.8223 -30.4688 66.6504 -32.373 66.6504 -35.2539 C 66.6504 -38.0859 67.7734 -39.9414 70.1172 -42.1875 C 77.9297 -49.6582 96.7285 -63.623 96.7285 -81.2012 L 96.7285 -83.3008 C 96.7285 -89.8438 93.0176 -93.3105 86.6211 -93.3105 L 25.8301 -93.3105 C 19.5312 -93.3105 16.0645 -89.8438 16.0645 -83.6914 L 16.0645 -81.2012 C 16.0645 -63.623 34.9121 -49.6582 42.7246 -42.1875 C 45.0684 -39.9414 46.1914 -38.0859 46.1914 -35.2539 C 46.1914 -32.373 45.0195 -30.4688 42.7246 -28.2715 C 34.9121 -20.9961 16.0645 -6.29883 16.0645 10.791 L 16.0645 13.3301 C 16.0645 19.4824 19.5312 22.998 25.8301 22.998 Z M 32.5195 14.0625 C 29.4434 14.0625 28.418 10.6445 31.25 8.49609 L 52.5391 -7.71484 C 53.1738 -8.25195 53.6621 -8.69141 53.6621 -9.57031 L 53.6621 -40.4297 C 53.6621 -43.6523 52.832 -45.3125 50.4883 -47.3145 C 47.1191 -50.1465 40.1855 -55.3711 37.0117 -59.7168 C 35.8398 -61.3281 35.9375 -62.6953 37.4023 -62.6953 L 75.3906 -62.6953 C 76.8555 -62.6953 77.002 -61.3281 75.8301 -59.7168 C 72.6074 -55.3711 65.7227 -50.0977 62.3047 -47.3633 C 59.8633 -45.3613 59.1797 -43.6523 59.1797 -40.4297 L 59.1797 -9.57031 C 59.1797 -8.69141 59.668 -8.25195 60.3027 -7.71484 L 81.5918 8.49609 C 84.4727 10.6445 83.3496 14.0625 80.3223 14.0625 Z"/>
  </g>
  <g id="Semibold-L" transform="matrix(1 0 0 1 1986.28 1556)">
   <path d="M 26.2207 23.584 L 87.4023 23.584 C 94.043 23.584 97.8516 19.9707 97.9004 13.2812 L 97.9004 11.084 C 97.998 -6.25 78.8086 -20.8984 71.2891 -28.0273 C 68.9453 -30.2734 67.6758 -32.2266 67.6758 -35.2539 C 67.6758 -38.2324 68.8965 -40.0879 71.2891 -42.4316 C 78.8086 -49.707 97.9004 -63.7207 97.9004 -81.4941 L 97.9004 -83.6426 C 97.9004 -90.2832 94.043 -93.9453 87.4023 -93.9453 L 26.2207 -93.9453 C 19.6777 -93.9453 16.0645 -90.2832 16.0645 -83.9844 L 16.0645 -81.4941 C 16.0645 -63.7207 35.2051 -49.707 42.7246 -42.4316 C 45.0684 -40.0879 46.2891 -38.2324 46.2891 -35.2539 C 46.2891 -32.2266 45.0195 -30.2734 42.7246 -28.0273 C 35.1562 -20.8984 16.0645 -6.25 16.0645 11.084 L 16.0645 13.6719 C 16.0645 19.9707 19.6777 23.584 26.2207 23.584 Z M 33.3008 13.7207 C 30.0293 13.7207 28.9062 10.1562 31.8359 7.91016 L 52.9785 -8.20312 C 53.6133 -8.69141 54.1016 -9.22852 54.1016 -10.0586 L 54.1016 -41.4551 C 54.1016 -44.5801 53.3203 -46.2402 50.8789 -48.2422 C 47.6074 -50.9766 40.5762 -56.3965 37.3047 -60.7422 C 36.1328 -62.3535 36.2305 -63.6719 37.6953 -63.6719 L 76.2695 -63.6719 C 77.7344 -63.6719 77.832 -62.3535 76.6602 -60.7422 C 73.3887 -56.3965 66.4062 -50.9277 63.0371 -48.291 C 60.5469 -46.3379 59.8633 -44.5801 59.8633 -41.4551 L 59.8633 -10.0586 C 59.8633 -9.22852 60.3516 -8.69141 60.9863 -8.20312 L 82.1289 7.91016 C 85.1074 10.1562 83.9355 13.7207 80.7129 13.7207 Z"/>
  </g>
  <g id="Bold-L" transform="matrix(1 0 0 1 2282.24 1556)">
   <path d="M 26.709 24.3652 L 88.4277 24.3652 C 95.4102 24.3652 99.3652 20.5566 99.3652 13.7207 L 99.4141 11.4746 C 99.4629 -6.10352 79.9316 -20.8008 72.7539 -27.7344 C 70.4102 -30.0781 69.043 -32.0312 69.043 -35.2051 C 69.043 -38.3789 70.3613 -40.332 72.7539 -42.7246 C 79.9316 -49.7559 99.3652 -63.916 99.3652 -81.8848 L 99.3652 -84.082 C 99.3652 -90.8691 95.4102 -94.7266 88.4277 -94.7266 L 26.709 -94.7266 C 19.8242 -94.7266 16.0645 -90.8691 16.0645 -84.4238 L 16.0645 -81.8848 C 16.0645 -63.916 35.5469 -49.8047 42.7246 -42.7246 C 45.1172 -40.2832 46.4355 -38.3789 46.4355 -35.2051 C 46.4355 -32.0312 45.0684 -30.0781 42.7246 -27.7344 C 35.5469 -20.8008 16.0645 -6.10352 16.0645 11.4746 L 16.0645 14.0625 C 16.0645 20.5566 19.8242 24.3652 26.709 24.3652 Z M 34.3262 13.3301 C 30.8594 13.3301 29.541 9.42383 32.666 7.08008 L 53.5645 -8.83789 C 54.1992 -9.32617 54.6875 -9.86328 54.6875 -10.6445 L 54.6875 -42.7734 C 54.6875 -45.8496 53.9062 -47.5098 51.416 -49.5117 C 48.1934 -52.0996 41.1133 -57.7148 37.6953 -62.1582 C 36.5234 -63.6719 36.6211 -64.9902 38.0371 -64.9902 L 77.4414 -64.9902 C 78.8574 -64.9902 78.9551 -63.6719 77.7832 -62.1582 C 74.3652 -57.7148 67.2852 -52.0508 64.0137 -49.5117 C 61.4746 -47.5586 60.7422 -45.8496 60.7422 -42.7734 L 60.7422 -10.6445 C 60.7422 -9.86328 61.3281 -9.32617 61.9141 -8.83789 L 82.8613 7.08008 C 85.9375 9.42383 84.6191 13.3301 81.2012 13.3301 Z"/>
  </g>
  <g id="Heavy-L" transform="matrix(1 0 0 1 2577.88 1556)">
   <path d="M 27.4902 25.4883 L 89.8926 25.4883 C 97.4121 25.4883 101.562 21.3867 101.562 14.3555 L 101.562 12.0117 C 101.611 -5.95703 81.5918 -20.6055 74.9023 -27.2949 C 72.5098 -29.7363 70.9961 -31.7871 70.9961 -35.2051 C 70.9961 -38.6719 72.4609 -40.625 74.9023 -43.1641 C 81.5918 -49.8535 101.562 -64.1113 101.562 -82.4219 L 101.562 -84.7656 C 101.562 -91.748 97.4121 -95.8496 89.8926 -95.8496 L 27.4902 -95.8496 C 20.0684 -95.8496 16.0645 -91.748 16.0645 -85.0098 L 16.0645 -82.4219 C 16.0645 -64.1113 36.084 -49.9023 42.7246 -43.1641 C 45.166 -40.5762 46.6309 -38.6719 46.6309 -35.2051 C 46.6309 -31.7871 45.1172 -29.7363 42.7246 -27.2949 C 36.084 -20.6055 16.0645 -5.95703 16.0645 12.0117 L 16.0645 14.5996 C 16.0645 21.3867 20.0684 25.4883 27.4902 25.4883 Z M 35.791 12.7441 C 31.9824 12.7441 30.5176 8.44727 33.7891 5.95703 L 54.4434 -9.76562 C 55.0293 -10.2051 55.5664 -10.8398 55.5664 -11.5723 L 55.5664 -44.7266 C 55.5664 -47.6562 54.7852 -49.3164 52.1973 -51.3184 C 49.1211 -53.7598 41.8457 -59.7168 38.2324 -64.1602 C 37.1094 -65.625 37.207 -66.8945 38.5742 -66.8945 L 79.1016 -66.8945 C 80.4688 -66.8945 80.6152 -65.625 79.4434 -64.1602 C 75.8301 -59.7168 68.6035 -53.6621 65.4297 -51.3184 C 62.7441 -49.3652 62.0605 -47.6562 62.0605 -44.7266 L 62.0605 -11.5723 C 62.0605 -10.8398 62.6953 -10.2051 63.2812 -9.76562 L 83.8867 5.95703 C 87.1582 8.44727 85.6934 12.7441 81.8848 12.7441 Z"/>
  </g>
  <g id="Black-L" transform="matrix(1 0 0 1 2873.61 1556)">
   <path d="M 28.1738 26.5137 L 91.2598 26.5137 C 99.1699 26.5137 103.516 22.168 103.516 14.9414 L 103.516 12.5 C 103.516 -5.85938 83.0566 -20.459 76.8066 -26.9043 C 74.4141 -29.4434 72.7539 -31.4941 72.7539 -35.2051 C 72.7539 -38.916 74.3164 -40.918 76.8066 -43.5059 C 83.0566 -49.9512 103.516 -64.3555 103.516 -82.9102 L 103.516 -85.3516 C 103.516 -92.5293 99.1699 -96.875 91.2598 -96.875 L 28.1738 -96.875 C 20.3125 -96.875 16.0645 -92.5293 16.0645 -85.5469 L 16.0645 -82.9102 C 16.0645 -64.3555 36.5723 -50 42.7246 -43.5059 C 45.166 -40.8691 46.7773 -38.916 46.7773 -35.2051 C 46.7773 -31.4941 45.1172 -29.4434 42.7246 -26.9043 C 36.5234 -20.459 16.0645 -5.85938 16.0645 12.5 L 16.0645 15.1367 C 16.0645 22.168 20.3125 26.5137 28.1738 26.5137 Z M 37.1582 12.207 C 32.959 12.207 31.3965 7.51953 34.8145 4.93164 L 55.1758 -10.5957 C 55.7617 -10.9863 56.3477 -11.7188 56.3477 -12.3535 L 56.3477 -46.4844 C 56.3477 -49.2676 55.6152 -50.9277 52.8809 -52.9297 C 49.9023 -55.2246 42.5293 -61.4746 38.7207 -65.9668 C 37.5977 -67.3828 37.6953 -68.6035 39.0625 -68.6035 L 80.6152 -68.6035 C 81.9336 -68.6035 82.0312 -67.3828 80.9082 -65.9668 C 77.1484 -61.4746 69.7266 -55.0781 66.6992 -52.9297 C 63.916 -50.9766 63.2324 -49.2676 63.2324 -46.4844 L 63.2324 -12.3535 C 63.2324 -11.7188 63.916 -10.9863 64.4531 -10.5957 L 84.8145 4.93164 C 88.2812 7.51953 86.6211 12.207 82.5195 12.207 Z"/>
  </g>
 </g>
</svg>
